# xmcd CD database file
#
# Track frame offsets:
#	150
#	14422
#	29387
#	45567
#	60077
#	74650
#	88027
#	103402
#	122450
#	136170
#	152305
#	162295
#	177037
#	191475
#	204672
#	219457
#	227950
#	241380
#	250802
#	262477
#	272302
#
# Disc length: 3838 seconds
#
# Revision: 2
# Processed by: cddbd v1.5.2PL0 Copyright (c) Steve Scherf et al.
# Submitted via: ACXtractor (MTCDDB.DLL V2003.07.15)
#
DISCID=240efc15
DTITLE=Various Artist - Country Duets
DYEAR=1979
DGENRE=Country
TTITLE0=Everytime Two Fools Collide/Kenny and Dottie
TTITLE1=You and Me/Kenny and Dottie
TTITLE2=What's Wrong with us Today/Kenny Rodgers and Dottie West 
TTITLE3=Beautiful Lies/Kenny Rodgers and Dottie West 
TTITLE4=That's the Way it Could Have Been/ Kenny and Dottie
TTITLE5=Why Don't we go Somewhere and Love/ Kenny and Dottie
TTITLE6=Baby I'm a Want You/ Kenny and Dottie
TTITLE7=Anyone who isn't me Tonight/Kenny Rodgers and Dottie West  
TTITLE8=The Loving Gift/Kenny Rodgers and Dottie West 
TTITLE9=We Love Each Other/Kenny and Dottie
TTITLE10=You're Easy to Love/Ann Murray and Glen Campbell
TTITLE11=I Say a little Prayer Medley/Ann Murray and Glen Campbell 
TTITLE12=We All Pull the Load/Ann Murray and Glen Campbell
TTITLE13=Canadian Sunset/ Anne Murray and Glen Campbell 
TTITLE14=Bring Back the Love/ Anne Murray  and Glen Campbell
TTITLE15=United we Stand /Anne Murray and Glen Campbell 
TTITLE16=Love Story You and Me /Anne Murray and Glen Campbell 
TTITLE17=Ease Your Pain/ Anne Murray and Glen Campbell 
TTITLE18=Let me be the One/ Anne Murray and Glen Campbell
TTITLE19=My Ecstasy/ Anne Murray and Glen Campbell
TTITLE20=Scarborough Fair/ Bobby Gentry and Glen Campbell
EXTD=ID3G:   2 YEAR: 1979
EXTT0=
EXTT1=
EXTT2=
EXTT3=
EXTT4=
EXTT5=
EXTT6=
EXTT7=
EXTT8=
EXTT9=
EXTT10=
EXTT11=
EXTT12=
EXTT13=
EXTT14=
EXTT15=
EXTT16=
EXTT17=
EXTT18=
EXTT19=
EXTT20=
PLAYORDER=
